# xmcd
#
# Track frame offsets: 
#        150
#        16453
#        35560
#        48840
#        64843
#        78868
#        92115
#        107178
#        121548
#        133565
#        143903
#        163923
#
# Disc length: 2457 seconds
#
# Revision: 0
# Processed by: cddbd v1.4PL0 Copyright (c) Steve Scherf et al.
# Submitted via: ExactAudioCopy v0.95a3
#
DISCID=9b09970c
DTITLE=Marty Stuart - Country Music
DYEAR=2003
DGENRE=Country
TTITLE0=A Satisfied Mind
TTITLE1=Fool For Love
TTITLE2=If There Ain't There Ought'a Be
TTITLE3=Here I Am
TTITLE4=Sundown in Nashville
TTITLE5=By George
TTITLE6=Farmer's Blues
TTITLE7=Wishful Thinkin'
TTITLE8=If You Wanted Me Around
TTITLE9=Too Much Mouth (At The End Of The Money)
TTITLE10=Tip Your Hat
TTITLE11=Walls Of A Prison
EXTD=
EXTT0=
EXTT1=
EXTT2=
EXTT3=
EXTT4=
EXTT5=
EXTT6=
EXTT7=
EXTT8=
EXTT9=
EXTT10=
EXTT11=
PLAYORDER=
